Simulation
nRows=28
nColumns=15
endheader
time  TH_x TH_y TH_z SC_y  SC_z  SC_x  AC_y  AC_z  AC_x  GH_y  GH_z  GH_yy  EL_x  PS_y
0.0  0.000000  0.000000  0.000000  -40.97484877243665  6.293857566463187  5.290427962726946  38.73957633412244  -2.539625854520646  -7.607337951094527  96.48001015329508  6.709672347818656  -65.15946679748635  22.679080718622963  120.000000
0.05745  0.000000  0.000000  0.000000  -39.197502075148925  5.060965043581569  4.162460675964115  39.46979793620957  -2.7590454936327875  -6.779637251217244  54.47780054418005  6.79751338140858  -26.21934111860794  22.078234887020333  120.000000
0.1149  0.000000  0.000000  0.000000  -37.397025606077996  3.776259789166287  2.8450894956560644  40.27784576497634  -3.060932777050757  -5.795375290535558  26.205751133497053  9.536055711658502  -0.9900450788889178  21.65091744313458  120.000000
0.17235  0.000000  0.000000  0.000000  -35.67587667513712  2.395588614092219  1.323831707424966  41.18802513420797  -3.4811748881886944  -4.570304849175681  11.382076854923525  13.421087990031882  10.81455674671945  21.47966239718779  120.000000
0.2298  0.000000  0.000000  0.000000  -34.165085771723525  0.839946198544399  -0.3538302170964056  42.293570691600024  -4.040702367419321  -3.0581751831440225  2.544754058050589  17.872039062659603  16.661659352543758  21.58290103196428  120.000000
0.28725  0.000000  0.000000  0.000000  -32.972861452988624  -0.9145461130419523  -2.144502616786185  43.65017773046124  -4.694179002149716  -1.2670320910368773  -3.4901316665611857  22.737130990617068  19.735178355441985  21.904380113181116  120.000000
0.3447  0.000000  0.000000  0.000000  -32.153299655691434  -2.785261485748178  -3.9952191213626373  45.20572730868297  -5.341860080083663  0.743703949523567  -7.960426971345317  27.88425689672289  21.28665598710407  22.34581977112811  120.000000
0.40215  0.000000  0.000000  0.000000  -31.699331144258963  -4.594404846777865  -5.837249872509189  46.812006491737904  -5.838274894452281  2.863142830409564  -11.38160938253309  33.108286294187124  21.85401297769739  22.784627497222175  120.000000
0.4596  0.000000  0.000000  0.000000  -31.533886024609263  -6.077330732560347  -7.589661683463772  48.302585900085475  -6.0227007164615465  4.949645988597109  -13.997305571453003  38.14643072675998  21.722246092044287  23.118442914491652  120.000000
0.51705  0.000000  0.000000  0.000000  -31.564150590439425  -6.952231268944765  -9.169708959661952  49.546877916171105  -5.760747017199267  6.883292004724176  -15.958329354272879  42.752277862895454  21.089780041007003  23.27653491455411  120.000000
0.5745  0.000000  0.000000  0.000000  -31.771339964612924  -7.032190286384899  -10.553515491084665  50.49929207050563  -4.956218554852639  8.622412747524177  -17.354481460870968  46.77084395598413  20.106278601684334  23.226344923367595  120.000000
0.63195  0.000000  0.000000  0.000000  -32.292487403158354  -6.297161687950637  -11.785351691615737  51.20706083825577  -3.561452439499822  10.224628038258555  -18.179627615673624  50.155248621621794  18.852926381273818  22.980650835708328  120.000000
0.6894  0.000000  0.000000  0.000000  -33.3397853215942  -4.90140982697175  -12.890797655600124  51.7898640447956  -1.6010268068505757  11.781590665372612  -18.363780749833747  52.9457012631659  17.355486326938387  22.586180093283616  120.000000
0.74685  0.000000  0.000000  0.000000  -35.048439923425754  -3.093018062674414  -13.82879252629541  52.389004110586356  0.8329869032952084  13.36179027195245  -17.867093728948106  55.22730542375302  15.61903537809921  22.102862303084287  120.000000
0.8043  0.000000  0.000000  0.000000  -37.36177134599413  -1.1303510820536076  -14.514845442740722  53.09600738766541  3.6155974649928178  14.962297015934585  -16.771604905447038  57.073808026281945  13.660118610071027  21.579567149774093  120.000000
0.86175  0.000000  0.000000  0.000000  -40.03847829403248  0.7621373878439993  -14.858212564012032  53.91539893499728  6.609497922046179  16.505529400920366  -15.289923748068192  58.51939576777227  11.512742253351023  21.047613434856466  120.000000
0.9192  0.000000  0.000000  0.000000  -42.74993339963847  2.44035510137797  -14.78558478835339  54.77535308637122  9.669957831480176  17.880553096685315  -13.685173905475084  59.57152324409614  9.22065895638653  20.526452798096887  120.000000
0.97665  0.000000  0.000000  0.000000  -45.19958440706996  3.861781862555336  -14.244706270013639  55.583655148322805  12.638783170030434  18.980974142597116  -12.177853221482355  60.26536563271721  6.840061111628478  20.02965330104035  120.000000
1.0341  0.000000  0.000000  0.000000  -47.20302085013019  5.046553355051682  -13.19464399124375  56.26541534333821  15.358520622458204  19.758236326893595  -10.906053184136987  60.679682058529885  4.4610866500299915  19.567735586052493  120.000000
1.09155  0.000000  0.000000  0.000000  -48.70302305844385  6.038182543828588  -11.63183938092228  56.790710633289784  17.703046357367718  20.227568104235054  -9.925543505729728  60.917823422745776  2.2106211189126923  19.141808368288427  120.000000
1.149  0.000000  0.000000  0.000000  -49.75082510982283  6.879609987909827  -9.615459728363751  57.17240008838729  19.60484432146416  20.444792431486526  -9.22794794891376  61.07889935092688  0.22970328606080556  18.746927286867432  120.000000
1.20645  0.000000  0.000000  0.000000  -50.45648653227478  7.592236562915353  -7.267713382395561  57.44109950864131  21.057374268361233  20.483363259707406  -8.763260201938822  61.234381516795445  -1.367511136604977  18.3791280532091  120.000000
1.2639  0.000000  0.000000  0.000000  -50.93154768630807  8.178663609329146  -4.755432212626636  57.629289457649904  22.09642213240525  20.406787692886013  -8.465172478987595  61.42029744591148  -2.5284427888443353  18.038116906478624  120.000000
1.32135  0.000000  0.000000  0.000000  -51.25483671334435  8.6317747154054  -2.2633261966393676  57.76171679210941  22.779410680337026  20.25966794288871  -8.271313469017148  61.64350420531552  -3.279848425619232  17.724988745344504  120.000000
1.3788  0.000000  0.000000  0.000000  -51.46624687356167  8.946322981579454  0.027746278692142627  57.8592926093819  23.169273066665735  20.0635404654054  -8.134725561885396  61.89140831650272  -3.714937158983038  17.44507707578722  120.000000
1.43625  0.000000  0.000000  0.000000  -51.57794130075242  9.122966731121215  1.9569704433825537  57.94188267839395  23.324248091739577  19.82424206600942  -8.027195646083117  62.140742253673444  -3.961304792373288  17.206519845688266  120.000000
1.4937  0.000000  0.000000  0.000000  -51.58833539110822  9.168536713688864  3.391906091527742  58.030405271769965  23.291852108684562  19.538069951988895  -7.9400122590175375  62.363955915934014  -4.143752566673467  17.016770339979377  120.000000
1.55115  0.000000  0.000000  0.000000  -51.49482570049426  9.092749731373312  4.234161212391997  58.143751343023084  23.10330283490922  19.203736159910314  -7.877948799070515  62.534392308776354  -4.355355926944289  16.881587030558318  120.000000
